<?xml version="1.0" encoding="iso-8859-1"?>
<!-- Generator: Adobe Illustrator 24.1.0, SVG Export Plug-In . SVG Version: 6.00 Build 0)  -->
<svg version="1.1" id="Calque_1" xmlns="http://www.w3.org/2000/svg" xmlns:xlink="http://www.w3.org/1999/xlink" x="0px" y="0px"
	 width="288px" height="288px" viewBox="0 0 288 288" enable-background="new 0 0 288 288" xml:space="preserve">
<path d="M175.503,155.718c6.227,3.176,12.533,6.208,18.66,9.568c6.079,3.333,11.263,7.777,14.842,13.839
	c5.959,10.091,2.472,20.718-8.303,25.383c-1.094,0.474-2.22,1.013-3.379,1.175c-5.837,0.816-9.326,4.253-12.591,9.089
	c-8.801,13.036-22.601,12.576-31.316-0.561c-5.381-8.112-6.767-17.42-8.027-26.765c-0.432-3.205-0.803-6.418-1.451-9.63
	c-1.102,7.667-1.795,15.361-3.66,22.869c-1.502,6.046-3.833,11.696-7.909,16.497c-7.891,9.293-20.04,9.703-27.229-0.136
	c-4.667-6.387-9.934-10.138-17.414-12.626c-11.615-3.864-14.882-15.421-8.384-25.878c5.099-8.205,13.06-12.875,21.37-17.058
	c3.902-1.964,7.899-3.74,11.673-5.994c-6.549,1.092-13.079,2.314-19.651,3.242c-7.047,0.995-14.01,0.485-20.677-2.233
	c-11.195-4.564-14.807-15.195-8.695-25.612c0.948-1.615,1.954-3.291,3.29-4.564c3.257-3.103,4.273-6.726,3.626-11.1
	c-0.296-2.002-0.129-4.108,0.071-6.143c1.059-10.782,10.073-17.4,20.67-15.224c7.805,1.603,14.122,5.877,19.913,11.109
	c4.562,4.122,9.166,8.196,12.402,11.086c-1.673-3.19-4.379-8.155-6.904-13.21c-3.646-7.299-5.879-14.926-5.102-23.233
	c1.036-11.067,10.011-17.756,20.9-15.476c0.502,0.105,1.034,0.179,1.482,0.406c6.807,3.456,13.259,2.58,20.486,0.244
	c13.598-4.396,24.03,5.47,22.666,20.292c-0.92,10-5.438,18.611-10.164,27.164c-0.896,1.621-1.797,3.238-2.021,5.482
	c2.072-2.208,4.122-4.437,6.221-6.619c6.069-6.313,12.313-12.402,20.705-15.64c15.346-5.921,27.245,2.393,26.175,18.751
	c-0.339,5.189,0.916,8.908,4.118,12.934c10.975,13.8,5.556,27.598-11.789,31.123c-11.101,2.256-21.746-0.547-32.477-2.582
	c-0.653-0.124-1.301-0.272-1.951-0.408C175.621,155.426,175.562,155.572,175.503,155.718z M143.915,163.411
	c9.969,0.041,17.923-7.745,18.056-17.674c0.136-10.176-7.827-18.355-17.906-18.39c-10.026-0.035-18.267,8.234-18.174,18.235
	C125.983,155.395,134.045,163.37,143.915,163.411z"/>
</svg>
